# xmcd CD database file
#
# Track frame offsets:
#	150
#	20646
#	33787
#	43147
#	60077
#	84630
#	108565
#	124067
#	142861
#	158228
#	183170
#	197654
#	212261
#	229534
#	246793
#	267987
#	291806
#
# Disc length: 4096 seconds
#
# Revision: 19
# Processed by: cddbd v1.5.2PL0 Copyright (c) Steve Scherf et al.
# Submitted via: CDex 1.70beta2
#
DISCID=df0ffe11
DTITLE=Various Artist - image 3
DYEAR=2003
DGENRE=Easy Listening
TTITLE0=ヴァンゲリス_アンセム(オーケストラ・バージョン)」FIFA ワールドカップ・公式アンセム
TTITLE1=アート・ガーファンクル_モーニング・ハズ・ブロークン
TTITLE2=ゴンチチ_[cora]JR東日本東北キャンペーンCM曲
TTITLE3=アゼリン・デビソン_ムーンライト・シャドウ キヤノン「カメラダイレクト」CM曲
TTITLE4=葉加瀬太郎_Angel In The Sky 大王製紙「エリエール レディースオープン」テーマ曲
TTITLE5=宮本文昭withエリック・ムーケfromディープ・フォレスト_Magic in the Air
TTITLE6=小松亮太with鳥山雄司_Starneon テレビ朝日系「スーパーJチャンネル」テーマ曲
TTITLE7=加古隆_風のワルツ 映画「阿弥陀堂だより」テーマ曲ロングバージョン
TTITLE8=ヨーヨー・マ - “響”Symphony of Japan(ドヴォルザーク：チェロ協奏曲ロ短調作品104 第2楽章より)_サントリーウィスキー「響」CM曲
TTITLE9=ジョン・ウィリアムズ_アクロス・ザ・スターズ 映画「スター・ウォーズ エピソード2」愛のテーマ
TTITLE10=渡辺俊幸featuring樫本大進_永久の愛(紀行テーマ)」NHK大河ドラマ「利家とまつ～加賀百万石物語」
TTITLE11=羽毛田丈史_青の翳り 映画「群青の夜の羽毛布」メインテーマ
TTITLE12=マーティン・テイラー_True
TTITLE13=神山純一_スタッカート・ポルカ サントリーウィスキー「響」CM曲
TTITLE14=松谷卓_TAKUMI／匠 ABC/テレビ朝日系「大改造!! 劇的ビフォーアフター」挿入曲
TTITLE15=古謝美佐子withショーロ・クラブ_童神
TTITLE16=羽毛田丈史with柏木広樹_黄昏のビギン
EXTD=YEAR: 2003
EXTT0=
EXTT1=
EXTT2=
EXTT3=
EXTT4=
EXTT5=
EXTT6=
EXTT7=
EXTT8=
EXTT9=
EXTT10=
EXTT11=
EXTT12=
EXTT13=
EXTT14=
EXTT15=
EXTT16=
PLAYORDER=
